<svg width="33" height="32" viewBox="0 0 33 32" fill="none" xmlns="http://www.w3.org/2000/svg">
<path d="M23.2972 0.5C27.8569 0.5 31.5638 4.2184 31.5638 8.78711C31.5638 11.8485 29.9182 14.5644 27.3666 16C29.9182 17.4356 31.5638 20.1515 31.5638 23.2129C31.5638 27.7816 27.8569 31.5 23.2972 31.5C20.2408 31.4999 17.4911 29.7932 16.0638 27.2158C14.6365 29.7932 11.8867 31.4999 8.83044 31.5C4.27077 31.5 0.563843 27.7816 0.563843 23.2129C0.563843 20.1518 2.2089 17.4357 4.76013 16C2.2089 14.5643 0.563843 11.8482 0.563843 8.78711C0.563843 4.2184 4.27077 0.5 8.83044 0.5C11.8864 0.500109 14.6364 2.20623 16.0638 4.7832C17.4912 2.2062 20.2411 0.50011 23.2972 0.5ZM23.2972 2.25C20.2318 2.25014 17.5475 4.4331 16.9193 7.43848C16.835 7.84322 16.4784 8.13477 16.0638 8.13477C15.6494 8.13472 15.2927 7.84319 15.2084 7.43848C14.58 4.4331 11.8959 2.25014 8.83044 2.25C5.23793 2.25 2.31189 5.18162 2.31189 8.78711C2.31189 11.8429 4.38363 14.4559 7.35095 15.1475C7.74805 15.2397 8.02673 15.5948 8.02673 16C8.02673 16.4055 7.74746 16.7595 7.34998 16.8516C4.38303 17.5434 2.31189 20.1573 2.31189 23.2129C2.31189 26.8184 5.23793 29.75 8.83044 29.75C11.8959 29.7499 14.58 27.5669 15.2084 24.5615L15.2523 24.415C15.3828 24.0883 15.7013 23.8653 16.0638 23.8652C16.4264 23.8652 16.7449 24.0883 16.8754 24.415L16.9193 24.5615L16.9838 24.8408C17.7152 27.7013 20.3275 29.7499 23.2972 29.75C26.8898 29.75 29.8158 26.8184 29.8158 23.2129L29.8099 22.9277C29.6856 19.9956 27.6513 17.5225 24.7767 16.8525C24.3796 16.7603 24.101 16.4052 24.101 16C24.101 15.5948 24.3796 15.2397 24.7767 15.1475C27.7441 14.4559 29.8158 11.8429 29.8158 8.78711C29.8158 5.18162 26.8898 2.25 23.2972 2.25Z" fill="#3DB370" stroke="#3DB370"/>
</svg>
