<svg width="25" height="92" viewBox="0 0 25 92" fill="none" xmlns="http://www.w3.org/2000/svg">
<path d="M21.1925 0.600098C22.6091 0.600098 23.7579 1.67485 23.7579 3.0001V33.0001C23.7579 34.3254 22.6091 35.4001 21.1925 35.4001H3.55512C2.13852 35.4001 0.989685 34.3254 0.989685 33.0001V3.0001C0.989685 1.67485 2.13852 0.600098 3.55512 0.600098H21.1925Z" fill="#D1E7FF"/>
<path d="M16.4079 13.479C17.022 13.479 17.5366 13.9118 17.6032 14.4825L18.461 21.8535C18.5388 22.5188 17.9816 23.1 17.2657 23.1H7.48176C6.76585 23.1 6.20867 22.5188 6.28643 21.8535L7.14425 14.4825C7.21079 13.9118 7.72548 13.479 8.33958 13.479H16.4079Z" fill="#B9DCFF"/>
<path d="M21.3138 0.602744C23.3769 0.692519 23.2675 3.60012 21.2021 3.60012H12.8549C8.07295 3.60012 4.19649 7.22659 4.19649 11.7001V35.4001H3.55513C2.13828 35.4001 0.989685 34.3256 0.989685 33.0001V3.00012C0.989685 1.67464 2.13828 0.600119 3.55513 0.600119C3.67121 0.600119 21.2196 0.598619 21.3138 0.602744Z" fill="#E8F3FF"/>
<path d="M23.7579 30.1501V33.0001C23.7579 34.3254 22.6091 35.4001 21.1925 35.4001H3.55512C2.13852 35.4001 0.989685 34.3254 0.989685 33.0001V30.1501H23.7579Z" fill="#B9DCFF"/>
<path d="M4.19647 30.1501V33.009C4.19647 34.9636 0.989685 35.0635 0.989685 33.0001V30.1501H4.19647Z" fill="#D1E7FF"/>
<path d="M16.4081 15.729C12.5233 15.729 9.34781 18.4649 8.93782 21.9895C8.8643 22.6214 8.29389 23.1 7.61445 23.1H7.48177C6.76585 23.1 6.20867 22.5188 6.28643 21.8535L7.14425 14.4825C7.21079 13.9118 7.72549 13.479 8.33959 13.479H16.4079C17.0215 13.479 17.5368 13.9113 17.6032 14.4821C17.6809 15.149 17.1226 15.729 16.4081 15.729Z" fill="#D1E7FF"/>
<path d="M21.1924 0H3.55506C1.78683 0 0.348267 1.3458 0.348267 3V33C0.348267 34.6542 1.78683 36 3.55506 36H21.1924C22.9606 36 24.3992 34.6542 24.3992 33V3C24.3992 1.3458 22.9606 0 21.1924 0ZM21.1924 34.8H3.55506C2.49417 34.8 1.63098 33.9925 1.63098 33V3C1.63098 2.00745 2.49417 1.2 3.55506 1.2H21.1924C22.2533 1.2 23.1165 2.00745 23.1165 3V29.55H4.75761C4.40341 29.55 4.11625 29.8187 4.11625 30.15C4.11625 30.4814 4.40341 30.75 4.75761 30.75H23.1165V33C23.1165 33.9925 22.2533 34.8 21.1924 34.8ZM13.8168 32.625C13.8168 32.9564 13.5296 33.225 13.1754 33.225H11.572C11.2178 33.225 10.9307 32.9564 10.9307 32.625C10.9307 32.2937 11.2178 32.025 11.572 32.025H13.1754C13.5296 32.025 13.8168 32.2937 13.8168 32.625ZM7.48177 23.7H17.2657C18.3626 23.7 19.2174 22.8079 19.0988 21.7883L18.241 14.4176C18.139 13.5407 17.3508 12.8794 16.408 12.8794H15.8142V11.7686C15.8141 9.99383 14.2708 8.55 12.3737 8.55C10.4767 8.55 8.93333 9.99383 8.93333 11.7686V12.8793H8.33959C7.39663 12.8793 6.60865 13.5406 6.50651 14.4176L5.64877 21.7883C5.53004 22.8084 6.38553 23.7 7.48177 23.7ZM6.92387 21.9182L7.78161 14.5475C7.81272 14.2806 8.0525 14.0793 8.33951 14.0793H8.93325V15.0155C8.93325 15.3469 9.22042 15.6155 9.57461 15.6155C9.9288 15.6155 10.216 15.3469 10.216 15.0155V11.7686C10.216 10.6556 11.1839 9.75 12.3737 9.75C13.5635 9.75 14.5313 10.6555 14.5313 11.7686V12.8794H11.7571C11.403 12.8794 11.1158 13.148 11.1158 13.4794C11.1158 13.8107 11.403 14.0794 11.7571 14.0794H14.5313V15.0155C14.5313 15.3469 14.8185 15.6155 15.1727 15.6155C15.5269 15.6155 15.8141 15.3469 15.8141 15.0155V14.0794H16.4078C16.6948 14.0794 16.9346 14.2807 16.9657 14.5475L17.8234 21.9182C17.8595 22.2284 17.6012 22.5 17.2655 22.5H7.48177C7.14763 22.5 6.88772 22.2296 6.92387 21.9182Z" fill="#007FFC"/>
<path d="M21.1925 56.6001C22.6091 56.6001 23.7579 57.6748 23.7579 59.0001V89.0001C23.7579 90.3254 22.6091 91.4001 21.1925 91.4001H3.55512C2.13852 91.4001 0.989685 90.3254 0.989685 89.0001V59.0001C0.989685 57.6748 2.13852 56.6001 3.55512 56.6001H21.1925Z" fill="#E1F4F5"/>
<path d="M16.4079 69.479C17.022 69.479 17.5366 69.9118 17.6032 70.4825L18.461 77.8535C18.5388 78.5188 17.9816 79.1 17.2657 79.1H7.48176C6.76585 79.1 6.20867 78.5188 6.28643 77.8535L7.14425 70.4825C7.21079 69.9118 7.72548 69.479 8.33958 69.479H16.4079Z" fill="#CAEFF2"/>
<path d="M21.3138 56.6027C23.3769 56.6925 23.2675 59.6001 21.2021 59.6001H12.8549C8.07295 59.6001 4.19649 63.2266 4.19649 67.7001V91.4001H3.55513C2.13828 91.4001 0.989685 90.3256 0.989685 89.0001V59.0001C0.989685 57.6746 2.13828 56.6001 3.55513 56.6001C3.67121 56.6001 21.2196 56.5986 21.3138 56.6027Z" fill="#F4FEFF"/>
<path d="M23.7579 86.1501V89.0001C23.7579 90.3254 22.6091 91.4001 21.1925 91.4001H3.55512C2.13852 91.4001 0.989685 90.3254 0.989685 89.0001V86.1501H23.7579Z" fill="#CAEFF2"/>
<path d="M4.19647 86.1501V89.009C4.19647 90.9636 0.989685 91.0635 0.989685 89.0001V86.1501H4.19647Z" fill="#E1F4F5"/>
<path d="M16.4081 71.729C12.5233 71.729 9.34781 74.4649 8.93782 77.9895C8.8643 78.6214 8.29389 79.1 7.61445 79.1H7.48177C6.76585 79.1 6.20867 78.5188 6.28643 77.8535L7.14425 70.4825C7.21079 69.9118 7.72549 69.479 8.33959 69.479H16.4079C17.0215 69.479 17.5368 69.9113 17.6032 70.4821C17.6809 71.149 17.1226 71.729 16.4081 71.729Z" fill="#E1F4F5"/>
<path d="M21.1924 56H3.55506C1.78683 56 0.348267 57.3458 0.348267 59V89C0.348267 90.6542 1.78683 92 3.55506 92H21.1924C22.9606 92 24.3992 90.6542 24.3992 89V59C24.3992 57.3458 22.9606 56 21.1924 56ZM21.1924 90.8H3.55506C2.49417 90.8 1.63098 89.9925 1.63098 89V59C1.63098 58.0075 2.49417 57.2 3.55506 57.2H21.1924C22.2533 57.2 23.1165 58.0075 23.1165 59V85.55H4.75761C4.40341 85.55 4.11625 85.8187 4.11625 86.15C4.11625 86.4814 4.40341 86.75 4.75761 86.75H23.1165V89C23.1165 89.9925 22.2533 90.8 21.1924 90.8ZM13.8168 88.625C13.8168 88.9564 13.5296 89.225 13.1754 89.225H11.572C11.2178 89.225 10.9307 88.9564 10.9307 88.625C10.9307 88.2937 11.2178 88.025 11.572 88.025H13.1754C13.5296 88.025 13.8168 88.2937 13.8168 88.625ZM7.48177 79.7H17.2657C18.3626 79.7 19.2174 78.8079 19.0988 77.7883L18.241 70.4176C18.139 69.5407 17.3508 68.8794 16.408 68.8794H15.8142V67.7686C15.8141 65.9938 14.2708 64.55 12.3737 64.55C10.4767 64.55 8.93333 65.9938 8.93333 67.7686V68.8793H8.33959C7.39663 68.8793 6.60865 69.5406 6.50651 70.4176L5.64877 77.7883C5.53004 78.8084 6.38553 79.7 7.48177 79.7ZM6.92387 77.9182L7.78161 70.5475C7.81272 70.2806 8.0525 70.0793 8.33951 70.0793H8.93325V71.0155C8.93325 71.3469 9.22042 71.6155 9.57461 71.6155C9.9288 71.6155 10.216 71.3469 10.216 71.0155V67.7686C10.216 66.6556 11.1839 65.75 12.3737 65.75C13.5635 65.75 14.5313 66.6555 14.5313 67.7686V68.8794H11.7571C11.403 68.8794 11.1158 69.148 11.1158 69.4794C11.1158 69.8107 11.403 70.0794 11.7571 70.0794H14.5313V71.0155C14.5313 71.3469 14.8185 71.6155 15.1727 71.6155C15.5269 71.6155 15.8141 71.3469 15.8141 71.0155V70.0794H16.4078C16.6948 70.0794 16.9346 70.2807 16.9657 70.5475L17.8234 77.9182C17.8595 78.2284 17.6012 78.5 17.2655 78.5H7.48177C7.14763 78.5 6.88772 78.2296 6.92387 77.9182Z" fill="#52C29D"/>
</svg>
