<svg xmlns="http://www.w3.org/2000/svg" xmlns:xlink="http://www.w3.org/1999/xlink">
    <symbol id="megaphones" viewBox="0 0 40 40">
        <path d="M34.2303 17.0039C35.0267 18.2942 34.0717 19.9147 32.4798 19.9722C26.6672 20.1851 20.7405 21.5432 15.1528 24.2169L13.3051 25.2144C13.3051 25.2222 13.2796 25.1736 17.7776 32.4919C18.1904 33.1615 17.9454 34.0168 17.2304 34.4037L15.7731 35.1906C15.0581 35.5767 14.143 35.3476 13.7303 34.6779L9.24365 27.4082L8.51539 27.8021C7.08461 28.5742 5.25525 28.1159 4.429 26.7774L1.06423 21.3255C0.238812 19.987 0.728747 18.2756 2.15952 17.5026L8.79689 13.9175C13.8694 10.8478 18.1678 6.78337 21.3899 2.00218C22.2394 0.74136 24.2166 0.777871 25.0129 2.06821L27.8919 6.73396C29.546 5.84058 31.6619 6.37117 32.6169 7.91865C33.5718 9.46613 33.0047 11.4448 31.3505 12.3381L34.2303 17.0039Z" fill="#D1E7FF"/>
        <path d="M32.6168 7.91887C33.5718 9.46636 33.0046 11.445 31.3505 12.3384L27.8918 6.73416C29.546 5.84078 31.6619 6.37137 32.6168 7.91887Z" fill="#D1E7FF"/>
        <path d="M25.0129 2.06818C25.4102 2.7125 25.3847 3.5118 24.9451 4.13157C21.3983 9.13111 16.6444 13.6487 10.8305 17.1677L3.05386 21.3681C2.51991 21.6571 2.09724 22.0572 1.80162 22.5194L1.06423 21.3254C0.238812 19.9869 0.728747 18.2755 2.15952 17.5026L8.79689 13.9174C13.8694 10.8478 18.1678 6.78333 21.3899 2.00215C22.2394 0.741332 24.2165 0.777921 25.0129 2.06818Z" fill="#E8F3FF"/>
        <path d="M8.79689 13.9177L15.1528 24.2171C13.8791 24.9047 9.78722 27.1145 8.51538 27.8023C7.08461 28.5745 5.25524 28.1161 4.429 26.7776L1.06423 21.3257C0.238812 19.9872 0.728747 18.2758 2.15952 17.5029L8.79689 13.9177Z" fill="#B9DCFF"/>
        <path d="M10.8097 17.1794C2.36409 21.7406 2.92378 21.4233 2.65133 21.6216C2.13823 21.9951 1.38937 21.852 1.06411 21.3254C0.23869 19.9869 0.728625 18.2756 2.1594 17.5026L8.79677 13.9175L10.8097 17.1794Z" fill="#D1E7FF"/>
        <path d="M14.515 27.183C12.152 28.463 13.8906 27.521 10.4577 29.3744L9.24365 27.4083L13.3051 25.2153L14.515 27.183Z" fill="#B9DCFF"/>
        <path d="M32.41 11.4495C32.136 11.8014 31.7798 12.1067 31.3504 12.3382L27.8918 6.73412C28.3212 6.50185 28.782 6.36668 29.2446 6.32007C29.4186 6.60221 32.2582 11.2035 32.41 11.4495Z" fill="#B9DCFF"/>
        <path d="M32.231 12.5215C34.8236 10.5404 33.928 6.62262 30.6884 5.81066C29.8419 5.5985 28.9656 5.64263 28.1623 5.92889L25.5882 1.75793C24.5407 0.0605986 21.9428 0.0156194 20.8274 1.67053C17.6614 6.36843 13.4435 10.3641 8.43582 13.3962C8.15067 13.5685 8.04496 13.9246 8.21369 14.2144C8.24076 14.2608 12.5045 21.1688 12.5328 21.2145C12.7161 21.5116 13.1222 21.6137 13.4402 21.442C13.7579 21.2704 13.8668 20.8903 13.6834 20.593L9.68499 14.1141C14.4599 11.1279 18.6887 7.17449 21.9514 2.33342C22.5349 1.46747 23.8913 1.49435 24.4375 2.37941L33.6546 17.3144C34.2015 18.2006 33.5458 19.3118 32.4541 19.3516C26.3293 19.5748 20.3328 21.0403 14.8502 23.6636C14.8269 23.6747 8.61087 27.0326 8.1828 27.2638C7.07165 27.864 5.64585 27.5066 5.00445 26.4671L1.6396 21.0146C0.998115 19.9752 1.38018 18.6414 2.49125 18.0412L6.54102 15.8539C6.85873 15.6823 6.9676 15.3022 6.78416 15.0049C6.60073 14.7076 6.19433 14.6059 5.8767 14.7775L1.82694 16.9648C0.0814388 17.9076 -0.518773 20.0031 0.488998 21.6361L3.85394 27.0885C4.86179 28.7216 7.10179 29.2829 8.84729 28.3401L9.0005 28.2574L13.1549 34.989C13.7516 35.9559 15.0711 36.2871 16.1053 35.7286L17.5624 34.9416C18.5962 34.3832 18.9498 33.1487 18.3529 32.1815L15.4086 27.4106C15.2252 27.1134 14.8188 27.0116 14.5011 27.1832C14.1834 27.3548 14.0746 27.7349 14.258 28.0321L17.2023 32.803C17.432 33.1751 17.296 33.6503 16.8981 33.8651L15.441 34.6522C15.0431 34.867 14.5353 34.7397 14.3056 34.3675L10.1512 27.6359L15.4703 24.7629C20.6753 22.275 26.4658 20.8136 32.5059 20.5935C34.5992 20.5171 35.8512 18.3873 34.8052 16.6928L32.231 12.5215ZM32.0412 8.22914C32.6971 9.29186 32.4615 10.6106 31.5536 11.4239L28.8395 7.02596C30.0293 6.69945 31.3748 7.14924 32.0412 8.22914ZM38.5387 5.46613L36.8199 6.39454C36.5019 6.56622 36.0958 6.46422 35.9124 6.16708C35.7289 5.86985 35.8379 5.48974 36.1556 5.31814L37.8744 4.38973C38.1924 4.21805 38.5985 4.32005 38.7819 4.61719C38.9653 4.91441 38.8565 5.29452 38.5387 5.46613ZM31.1467 1.92402L31.5659 0.460752C31.6609 0.129194 32.0249 -0.0674254 32.3796 0.0212904C32.734 0.110162 32.9443 0.450964 32.8493 0.782444L32.4301 2.24571C32.3353 2.57641 31.972 2.77404 31.6164 2.68517C31.2621 2.5963 31.0518 2.25558 31.1467 1.92402ZM39.8353 12.1022C39.7557 12.3798 39.4873 12.5629 39.1939 12.5629C39.0737 12.5629 39.1578 12.5757 37.4574 12.1495C37.103 12.0606 36.8927 11.7199 36.9876 11.3883C37.0826 11.0568 37.4469 10.8602 37.8013 10.9489L39.3655 11.3409C39.7198 11.4298 39.9302 11.7706 39.8353 12.1022Z" fill="#007FFC"/>
    </symbol>
    <symbol id="megaphones_hover" viewBox="0 0 40 40">
        <path d="M34.2303 17.0039C35.0267 18.2942 34.0717 19.9147 32.4798 19.9722C26.6672 20.1851 20.7405 21.5432 15.1528 24.2169L13.3051 25.2144C13.3051 25.2222 13.2796 25.1736 17.7776 32.4919C18.1904 33.1615 17.9454 34.0168 17.2304 34.4037L15.7731 35.1906C15.0581 35.5767 14.143 35.3476 13.7303 34.6779L9.24365 27.4082L8.51539 27.8021C7.08461 28.5742 5.25525 28.1159 4.429 26.7774L1.06423 21.3255C0.238812 19.987 0.728747 18.2756 2.15952 17.5026L8.79689 13.9175C13.8694 10.8478 18.1678 6.78337 21.3899 2.00218C22.2394 0.74136 24.2166 0.777871 25.0129 2.06821L27.8919 6.73396C29.546 5.84058 31.6619 6.37117 32.6169 7.91865C33.5718 9.46613 33.0047 11.4448 31.3505 12.3381L34.2303 17.0039Z" fill="#E1F4F5"/>
        <path d="M32.6168 7.91887C33.5718 9.46636 33.0046 11.445 31.3505 12.3384L27.8918 6.73416C29.546 5.84078 31.6619 6.37137 32.6168 7.91887Z" fill="#E1F4F5"/>
        <path d="M25.0129 2.06818C25.4102 2.7125 25.3847 3.5118 24.9451 4.13157C21.3983 9.13111 16.6444 13.6487 10.8305 17.1677L3.05386 21.3681C2.51991 21.6571 2.09724 22.0572 1.80162 22.5194L1.06423 21.3254C0.238812 19.9869 0.728747 18.2755 2.15952 17.5026L8.79689 13.9174C13.8694 10.8478 18.1678 6.78333 21.3899 2.00215C22.2394 0.741332 24.2165 0.777921 25.0129 2.06818Z" fill="#F4FEFF"/>
        <path d="M8.79689 13.9177L15.1528 24.2171C13.8791 24.9047 9.78722 27.1145 8.51538 27.8023C7.08461 28.5745 5.25524 28.1161 4.429 26.7776L1.06423 21.3257C0.238812 19.9872 0.728747 18.2758 2.15952 17.5029L8.79689 13.9177Z" fill="#CAEFF2"/>
        <path d="M10.8097 17.1794C2.36409 21.7406 2.92378 21.4233 2.65133 21.6216C2.13823 21.9951 1.38937 21.852 1.06411 21.3254C0.23869 19.9869 0.728625 18.2756 2.1594 17.5026L8.79677 13.9175L10.8097 17.1794Z" fill="#E1F4F5"/>
        <path d="M14.515 27.183C12.152 28.463 13.8906 27.521 10.4577 29.3744L9.24365 27.4083L13.3051 25.2153L14.515 27.183Z" fill="#CAEFF2"/>
        <path d="M32.41 11.4495C32.136 11.8014 31.7798 12.1067 31.3504 12.3382L27.8918 6.73412C28.3212 6.50185 28.782 6.36668 29.2446 6.32007C29.4186 6.60221 32.2582 11.2035 32.41 11.4495Z" fill="#CAEFF2"/>
        <path d="M32.231 12.5215C34.8236 10.5404 33.928 6.62262 30.6884 5.81066C29.8419 5.5985 28.9656 5.64263 28.1623 5.92889L25.5882 1.75793C24.5407 0.0605986 21.9428 0.0156194 20.8274 1.67053C17.6614 6.36843 13.4435 10.3641 8.43582 13.3962C8.15067 13.5685 8.04496 13.9246 8.21369 14.2144C8.24076 14.2608 12.5045 21.1688 12.5328 21.2145C12.7161 21.5116 13.1222 21.6137 13.4402 21.442C13.7579 21.2704 13.8668 20.8903 13.6834 20.593L9.68499 14.1141C14.4599 11.1279 18.6887 7.17449 21.9514 2.33342C22.5349 1.46747 23.8913 1.49435 24.4375 2.37941L33.6546 17.3144C34.2015 18.2006 33.5458 19.3118 32.4541 19.3516C26.3293 19.5748 20.3328 21.0403 14.8502 23.6636C14.8269 23.6747 8.61087 27.0326 8.1828 27.2638C7.07165 27.864 5.64585 27.5066 5.00445 26.4671L1.6396 21.0146C0.998115 19.9752 1.38018 18.6414 2.49125 18.0412L6.54102 15.8539C6.85873 15.6823 6.9676 15.3022 6.78416 15.0049C6.60073 14.7076 6.19433 14.6059 5.8767 14.7775L1.82694 16.9648C0.0814388 17.9076 -0.518773 20.0031 0.488998 21.6361L3.85394 27.0885C4.86179 28.7216 7.10179 29.2829 8.84729 28.3401L9.0005 28.2574L13.1549 34.989C13.7516 35.9559 15.0711 36.2871 16.1053 35.7286L17.5624 34.9416C18.5962 34.3832 18.9498 33.1487 18.3529 32.1815L15.4086 27.4106C15.2252 27.1134 14.8188 27.0116 14.5011 27.1832C14.1834 27.3548 14.0746 27.7349 14.258 28.0321L17.2023 32.803C17.432 33.1751 17.296 33.6503 16.8981 33.8651L15.441 34.6522C15.0431 34.867 14.5353 34.7397 14.3056 34.3675L10.1512 27.6359L15.4703 24.7629C20.6753 22.275 26.4658 20.8136 32.5059 20.5935C34.5992 20.5171 35.8512 18.3873 34.8052 16.6928L32.231 12.5215ZM32.0412 8.22914C32.6971 9.29186 32.4615 10.6106 31.5536 11.4239L28.8395 7.02596C30.0293 6.69945 31.3748 7.14924 32.0412 8.22914ZM38.5387 5.46613L36.8199 6.39454C36.5019 6.56622 36.0958 6.46422 35.9124 6.16708C35.7289 5.86985 35.8379 5.48974 36.1556 5.31814L37.8744 4.38973C38.1924 4.21805 38.5985 4.32005 38.7819 4.61719C38.9653 4.91441 38.8565 5.29452 38.5387 5.46613ZM31.1467 1.92402L31.5659 0.460752C31.6609 0.129194 32.0249 -0.0674254 32.3796 0.0212904C32.734 0.110162 32.9443 0.450964 32.8493 0.782444L32.4301 2.24571C32.3353 2.57641 31.972 2.77404 31.6164 2.68517C31.2621 2.5963 31.0518 2.25558 31.1467 1.92402ZM39.8353 12.1022C39.7557 12.3798 39.4873 12.5629 39.1939 12.5629C39.0737 12.5629 39.1578 12.5757 37.4574 12.1495C37.103 12.0606 36.8927 11.7199 36.9876 11.3883C37.0826 11.0568 37.4469 10.8602 37.8013 10.9489L39.3655 11.3409C39.7198 11.4298 39.9302 11.7706 39.8353 12.1022Z" fill="#52C29D"/>
    </symbol>

    <symbol id="buildings" viewBox="0 0 39 36">
        <path d="M35.9187 13.3215V32.9997C35.9187 34.325 34.7698 35.3997 33.3532 35.3997H5.13364C3.71705 35.3997 2.56822 34.325 2.56822 32.9997C2.56822 14.3965 2.56654 17.8814 2.57383 13.3215H35.9187Z" fill="#D1E7FF"/>
        <path d="M35.9187 13.3215V17.8664C35.9187 18.8499 35.076 19.6647 34.0246 19.6687C34.0129 19.6687 4.48275 19.6687 4.46143 19.6687C3.41041 19.6644 2.56823 18.8496 2.56823 17.8664C2.56823 16.5546 2.56726 17.4602 2.57384 13.3215H35.9187Z" fill="#B9DCFF"/>
        <path d="M25.7372 24.6749V35.3998H12.7497V24.6749C12.7497 23.3496 13.8985 22.2749 15.3151 22.2749H23.1718C24.5884 22.2749 25.7372 23.3496 25.7372 24.6749Z" fill="#E8F3FF"/>
        <path d="M37.8427 13.3215C37.8427 15.7228 35.7613 17.6715 33.1929 17.6715C30.6251 17.6715 28.5431 15.7237 28.5431 13.3215C28.5431 15.7237 26.4611 17.6715 23.8932 17.6715C21.3254 17.6715 19.2434 15.7237 19.2434 13.3215C19.2434 15.7237 17.1614 17.6715 14.5936 17.6715C12.0258 17.6715 9.94378 15.7237 9.94378 13.3215C9.93977 15.708 7.84014 17.6715 5.29396 17.6715C2.75091 17.6715 0.648153 15.7105 0.644144 13.3215C0.644144 9.54093 0.633081 9.77358 0.672203 9.60003C0.710685 9.4297 0.443961 10.0328 4.47784 1.32309C4.68147 0.884345 5.14405 0.600098 5.65473 0.600098H32.8321C33.3428 0.600098 33.8054 0.884345 34.009 1.32309C38.0458 10.0392 37.7761 9.42955 37.8146 9.60003C37.8537 9.7732 37.8427 9.5368 37.8427 13.3215Z" fill="#B9DCFF"/>
        <path d="M37.8427 13.3215C37.8427 15.7227 35.7613 17.6714 33.1929 17.6714C30.6251 17.6714 28.5431 15.7237 28.5431 13.3215C28.5431 15.7237 26.4611 17.6714 23.8932 17.6714C21.3254 17.6714 19.2434 15.7237 19.2434 13.3215C19.2434 15.7237 17.1614 17.6714 14.5936 17.6714C12.0258 17.6714 9.94376 15.7237 9.94376 13.3215C9.93975 15.7079 7.84011 17.6714 5.29393 17.6714C2.75088 17.6714 0.648116 15.7104 0.644108 13.3215C0.637774 9.5203 0.638736 9.74837 0.672167 9.6001H37.8146C37.8537 9.77327 37.8427 9.53687 37.8427 13.3215Z" fill="#B9DCFF"/>
        <path d="M32.4857 3.8062C24.3423 2.7577 16.1237 4.10253 9.47642 8.78839C8.7282 9.31586 7.81619 9.60011 6.87933 9.60011H0.672302C0.710784 9.42979 0.44406 10.0329 4.47794 1.3231C4.68157 0.884348 5.14415 0.600098 5.65483 0.600098H32.8322C33.3434 0.600098 33.8057 0.884048 34.009 1.3228L34.1877 1.70845C34.6884 2.78943 33.7333 3.96685 32.4857 3.8062Z" fill="white"/>
        <path d="M36.56 20.325V33C36.56 34.6542 35.1214 36 33.3532 36H5.13362C3.3654 36 1.92684 34.6542 1.92684 33V20.325C1.92684 19.9937 2.21401 19.725 2.5682 19.725C2.92238 19.725 3.20955 19.9937 3.20955 20.325V33C3.20955 33.9925 4.07265 34.8 5.13362 34.8H12.1083V24.675C12.1083 23.0208 13.5469 21.675 15.3151 21.675H23.1717C24.9399 21.675 26.3785 23.0208 26.3785 24.675V32.4C26.3785 32.7313 26.0913 33 25.7371 33C25.3829 33 25.0958 32.7313 25.0958 32.4V24.675C25.0958 23.6825 24.2326 22.875 23.1717 22.875H15.3151C14.2542 22.875 13.3911 23.6825 13.3911 24.675V34.8H18.6021V25.35C18.6021 25.0187 18.8892 24.75 19.2434 24.75C19.5976 24.75 19.8848 25.0187 19.8848 25.35V34.8H33.3532C34.4141 34.8 35.2773 33.9925 35.2773 33V20.325C35.2773 19.9937 35.5644 19.725 35.9186 19.725C36.2728 19.725 36.56 19.9936 36.56 20.325ZM4.17158 9.6C4.17158 9.93135 4.45875 10.2 4.81294 10.2C39.7081 10.2 37.9779 10.2584 38.2329 10.0754C38.3661 9.9795 38.4533 9.84112 38.4772 9.68303C38.5129 9.4419 38.7431 10.0349 34.2623 0.361425C34.1606 0.141975 33.9295 0 33.6738 0H4.81286C4.55728 0 4.32599 0.14205 4.22441 0.361425L0.0556098 9.36143C-0.0180658 9.52058 0.00269808 9.26798 0.00269808 13.3224C0.0073479 16.0513 2.38092 18.2714 5.29387 18.2714C7.29642 18.2714 9.04403 17.2222 9.94233 15.6797C11.9486 19.129 17.2333 19.1328 19.2433 15.682C21.2517 19.13 26.5341 19.1308 28.543 15.682C29.4406 17.2232 31.1884 18.2714 33.1928 18.2714C36.1104 18.2714 38.484 16.0509 38.484 13.3214C38.484 12.9901 38.1968 12.7214 37.8426 12.7214C37.4884 12.7214 37.2013 12.9901 37.2013 13.3214C37.2013 15.3892 35.4031 17.0714 33.1928 17.0714C30.9825 17.0714 29.1843 15.3892 29.1843 13.3214C29.1843 12.9901 28.8972 12.7214 28.543 12.7214C28.1888 12.7214 27.9016 12.9901 27.9016 13.3214C27.9016 15.3892 26.1034 17.0714 23.8932 17.0714C21.6829 17.0714 19.8847 15.3892 19.8847 13.3214C19.8847 12.9901 19.5975 12.7214 19.2433 12.7214C18.8891 12.7214 18.602 12.9901 18.602 13.3214C18.602 15.3892 16.8038 17.0714 14.5935 17.0714C12.4324 17.0714 10.585 15.4466 10.585 13.2914C10.585 12.9601 10.2979 12.6914 9.94369 12.6914C9.58951 12.6914 9.30234 12.9601 9.30234 13.2914C9.30234 15.4284 7.46654 17.0714 5.29387 17.0714C3.08713 17.0714 1.28885 15.3887 1.28541 13.3214V9.72435L5.23399 1.2H33.2528L36.8658 9H4.81294C4.45867 9 4.17158 9.26858 4.17158 9.6Z" fill="#007FFC"/>
    </symbol>
    <symbol id="buildings_hover" viewBox="0 0 39 36">
        <path d="M35.9187 13.3215V32.9997C35.9187 34.325 34.7698 35.3997 33.3532 35.3997H5.13364C3.71705 35.3997 2.56822 34.325 2.56822 32.9997C2.56822 14.3965 2.56654 17.8814 2.57383 13.3215H35.9187Z" fill="#E1F4F5"/>
        <path d="M35.9187 13.3215V17.8664C35.9187 18.8499 35.076 19.6647 34.0246 19.6687C34.0129 19.6687 4.48275 19.6687 4.46143 19.6687C3.41041 19.6644 2.56823 18.8496 2.56823 17.8664C2.56823 16.5546 2.56726 17.4602 2.57384 13.3215H35.9187Z" fill="#CAEFF2"/>
        <path d="M25.7372 24.6749V35.3998H12.7497V24.6749C12.7497 23.3496 13.8985 22.2749 15.3151 22.2749H23.1718C24.5884 22.2749 25.7372 23.3496 25.7372 24.6749Z" fill="#F4FEFF"/>
        <path d="M37.8427 13.3215C37.8427 15.7228 35.7613 17.6715 33.1929 17.6715C30.6251 17.6715 28.5431 15.7237 28.5431 13.3215C28.5431 15.7237 26.4611 17.6715 23.8932 17.6715C21.3254 17.6715 19.2434 15.7237 19.2434 13.3215C19.2434 15.7237 17.1614 17.6715 14.5936 17.6715C12.0258 17.6715 9.94378 15.7237 9.94378 13.3215C9.93977 15.708 7.84014 17.6715 5.29396 17.6715C2.75091 17.6715 0.648153 15.7105 0.644144 13.3215C0.644144 9.54093 0.633081 9.77358 0.672203 9.60003C0.710685 9.4297 0.443961 10.0328 4.47784 1.32309C4.68147 0.884345 5.14405 0.600098 5.65473 0.600098H32.8321C33.3428 0.600098 33.8054 0.884345 34.009 1.32309C38.0458 10.0392 37.7761 9.42955 37.8146 9.60003C37.8537 9.7732 37.8427 9.5368 37.8427 13.3215Z" fill="#CAEFF2"/>
        <path d="M37.8427 13.3215C37.8427 15.7227 35.7613 17.6714 33.1929 17.6714C30.6251 17.6714 28.5431 15.7237 28.5431 13.3215C28.5431 15.7237 26.4611 17.6714 23.8932 17.6714C21.3254 17.6714 19.2434 15.7237 19.2434 13.3215C19.2434 15.7237 17.1614 17.6714 14.5936 17.6714C12.0258 17.6714 9.94376 15.7237 9.94376 13.3215C9.93975 15.7079 7.84011 17.6714 5.29393 17.6714C2.75088 17.6714 0.648116 15.7104 0.644108 13.3215C0.637774 9.5203 0.638736 9.74837 0.672167 9.6001H37.8146C37.8537 9.77327 37.8427 9.53687 37.8427 13.3215Z" fill="#CAEFF2"/>
        <path d="M32.4857 3.8062C24.3423 2.7577 16.1237 4.10253 9.47642 8.78839C8.7282 9.31586 7.81619 9.60011 6.87933 9.60011H0.672302C0.710784 9.42979 0.44406 10.0329 4.47794 1.3231C4.68157 0.884348 5.14415 0.600098 5.65483 0.600098H32.8322C33.3434 0.600098 33.8057 0.884048 34.009 1.3228L34.1877 1.70845C34.6884 2.78943 33.7333 3.96685 32.4857 3.8062Z" fill="white"/>
        <path d="M36.56 20.325V33C36.56 34.6542 35.1214 36 33.3532 36H5.13362C3.3654 36 1.92684 34.6542 1.92684 33V20.325C1.92684 19.9937 2.21401 19.725 2.5682 19.725C2.92238 19.725 3.20955 19.9937 3.20955 20.325V33C3.20955 33.9925 4.07265 34.8 5.13362 34.8H12.1083V24.675C12.1083 23.0208 13.5469 21.675 15.3151 21.675H23.1717C24.9399 21.675 26.3785 23.0208 26.3785 24.675V32.4C26.3785 32.7313 26.0913 33 25.7371 33C25.3829 33 25.0958 32.7313 25.0958 32.4V24.675C25.0958 23.6825 24.2326 22.875 23.1717 22.875H15.3151C14.2542 22.875 13.3911 23.6825 13.3911 24.675V34.8H18.6021V25.35C18.6021 25.0187 18.8892 24.75 19.2434 24.75C19.5976 24.75 19.8848 25.0187 19.8848 25.35V34.8H33.3532C34.4141 34.8 35.2773 33.9925 35.2773 33V20.325C35.2773 19.9937 35.5644 19.725 35.9186 19.725C36.2728 19.725 36.56 19.9936 36.56 20.325ZM4.17158 9.6C4.17158 9.93135 4.45875 10.2 4.81294 10.2C39.7081 10.2 37.9779 10.2584 38.2329 10.0754C38.3661 9.9795 38.4533 9.84112 38.4772 9.68303C38.5129 9.4419 38.7431 10.0349 34.2623 0.361425C34.1606 0.141975 33.9295 0 33.6738 0H4.81286C4.55728 0 4.32599 0.14205 4.22441 0.361425L0.0556098 9.36143C-0.0180658 9.52058 0.00269808 9.26798 0.00269808 13.3224C0.0073479 16.0513 2.38092 18.2714 5.29387 18.2714C7.29642 18.2714 9.04403 17.2222 9.94233 15.6797C11.9486 19.129 17.2333 19.1328 19.2433 15.682C21.2517 19.13 26.5341 19.1308 28.543 15.682C29.4406 17.2232 31.1884 18.2714 33.1928 18.2714C36.1104 18.2714 38.484 16.0509 38.484 13.3214C38.484 12.9901 38.1968 12.7214 37.8426 12.7214C37.4884 12.7214 37.2013 12.9901 37.2013 13.3214C37.2013 15.3892 35.4031 17.0714 33.1928 17.0714C30.9825 17.0714 29.1843 15.3892 29.1843 13.3214C29.1843 12.9901 28.8972 12.7214 28.543 12.7214C28.1888 12.7214 27.9016 12.9901 27.9016 13.3214C27.9016 15.3892 26.1034 17.0714 23.8932 17.0714C21.6829 17.0714 19.8847 15.3892 19.8847 13.3214C19.8847 12.9901 19.5975 12.7214 19.2433 12.7214C18.8891 12.7214 18.602 12.9901 18.602 13.3214C18.602 15.3892 16.8038 17.0714 14.5935 17.0714C12.4324 17.0714 10.585 15.4466 10.585 13.2914C10.585 12.9601 10.2979 12.6914 9.94369 12.6914C9.58951 12.6914 9.30234 12.9601 9.30234 13.2914C9.30234 15.4284 7.46654 17.0714 5.29387 17.0714C3.08713 17.0714 1.28885 15.3887 1.28541 13.3214V9.72435L5.23399 1.2H33.2528L36.8658 9H4.81294C4.45867 9 4.17158 9.26858 4.17158 9.6Z" fill="#52C29D"/>
    </symbol>

    <symbol id="phones" viewBox="0 0 25 36">
        <path d="M20.8442 0.600098C22.2608 0.600098 23.4097 1.67485 23.4097 3.0001V33.0001C23.4097 34.3254 22.2608 35.4001 20.8442 35.4001H3.20685C1.79025 35.4001 0.641418 34.3254 0.641418 33.0001V3.0001C0.641418 1.67485 1.79025 0.600098 3.20685 0.600098H20.8442Z" fill="#D1E7FF"/>
        <path d="M16.0596 13.479C16.6737 13.479 17.1884 13.9118 17.2549 14.4825L18.1127 21.8535C18.1905 22.5188 17.6333 23.1 16.9174 23.1H7.13349C6.41758 23.1 5.8604 22.5188 5.93816 21.8535L6.79598 14.4825C6.86252 13.9118 7.37721 13.479 7.99131 13.479H16.0596Z" fill="#B9DCFF"/>
        <path d="M20.9655 0.602744C23.0287 0.692519 22.9192 3.60012 20.8538 3.60012H12.5066C7.72468 3.60012 3.84822 7.22659 3.84822 11.7001V35.4001H3.20686C1.79001 35.4001 0.641418 34.3256 0.641418 33.0001V3.00012C0.641418 1.67464 1.79001 0.600119 3.20686 0.600119C3.32295 0.600119 20.8714 0.598619 20.9655 0.602744Z" fill="#E8F3FF"/>
        <path d="M23.4097 30.1501V33.0001C23.4097 34.3254 22.2608 35.4001 20.8442 35.4001H3.20685C1.79025 35.4001 0.641418 34.3254 0.641418 33.0001V30.1501H23.4097Z" fill="#B9DCFF"/>
        <path d="M3.8482 30.1501V33.009C3.8482 34.9636 0.641418 35.0635 0.641418 33.0001V30.1501H3.8482Z" fill="#D1E7FF"/>
        <path d="M16.0598 15.729C12.175 15.729 8.99954 18.4649 8.58955 21.9895C8.51604 22.6214 7.94563 23.1 7.26618 23.1H7.1335C6.41758 23.1 5.8604 22.5188 5.93816 21.8535L6.79599 14.4825C6.86253 13.9118 7.37722 13.479 7.99132 13.479H16.0597C16.6733 13.479 17.1885 13.9113 17.2549 14.4821C17.3326 15.149 16.7744 15.729 16.0598 15.729Z" fill="#D1E7FF"/>
        <path d="M20.8441 0H3.20679C1.43857 0 0 1.3458 0 3V33C0 34.6542 1.43857 36 3.20679 36H20.8441C22.6124 36 24.0509 34.6542 24.0509 33V3C24.0509 1.3458 22.6124 0 20.8441 0ZM20.8441 34.8H3.20679C2.1459 34.8 1.28272 33.9925 1.28272 33V3C1.28272 2.00745 2.1459 1.2 3.20679 1.2H20.8441C21.905 1.2 22.7682 2.00745 22.7682 3V29.55H4.40934C4.05515 29.55 3.76798 29.8187 3.76798 30.15C3.76798 30.4814 4.05515 30.75 4.40934 30.75H22.7682V33C22.7682 33.9925 21.905 34.8 20.8441 34.8ZM13.4685 32.625C13.4685 32.9564 13.1814 33.225 12.8272 33.225H11.2238C10.8696 33.225 10.5824 32.9564 10.5824 32.625C10.5824 32.2937 10.8696 32.025 11.2238 32.025H12.8272C13.1814 32.025 13.4685 32.2937 13.4685 32.625ZM7.13351 23.7H16.9174C18.0143 23.7 18.8692 22.8079 18.7505 21.7883L17.8928 14.4176C17.7907 13.5407 17.0026 12.8794 16.0597 12.8794H15.466V11.7686C15.4659 9.99383 13.9225 8.55 12.0255 8.55C10.1284 8.55 8.58506 9.99383 8.58506 11.7686V12.8793H7.99132C7.04837 12.8793 6.26038 13.5406 6.15824 14.4176L5.30051 21.7883C5.18177 22.8084 6.03727 23.7 7.13351 23.7ZM6.57561 21.9182L7.43334 14.5475C7.46445 14.2806 7.70424 14.0793 7.99124 14.0793H8.58498V15.0155C8.58498 15.3469 8.87215 15.6155 9.22634 15.6155C9.58053 15.6155 9.8677 15.3469 9.8677 15.0155V11.7686C9.8677 10.6556 10.8356 9.75 12.0254 9.75C13.2152 9.75 14.1831 10.6555 14.1831 11.7686V12.8794H11.4089C11.0547 12.8794 10.7675 13.148 10.7675 13.4794C10.7675 13.8107 11.0547 14.0794 11.4089 14.0794H14.1831V15.0155C14.1831 15.3469 14.4702 15.6155 14.8244 15.6155C15.1786 15.6155 15.4658 15.3469 15.4658 15.0155V14.0794H16.0595C16.3465 14.0794 16.5863 14.2807 16.6174 14.5475L17.4752 21.9182C17.5112 22.2284 17.2529 22.5 16.9173 22.5H7.13351C6.79936 22.5 6.53945 22.2296 6.57561 21.9182Z" fill="#007FFC"/>
    </symbol>
    <symbol id="phones_hover" viewBox="0 0 25 36">
        <path d="M20.8442 0.600098C22.2608 0.600098 23.4097 1.67485 23.4097 3.0001V33.0001C23.4097 34.3254 22.2608 35.4001 20.8442 35.4001H3.20685C1.79025 35.4001 0.641418 34.3254 0.641418 33.0001V3.0001C0.641418 1.67485 1.79025 0.600098 3.20685 0.600098H20.8442Z" fill="#E1F4F5"/>
        <path d="M16.0596 13.479C16.6737 13.479 17.1884 13.9118 17.2549 14.4825L18.1127 21.8535C18.1905 22.5188 17.6333 23.1 16.9174 23.1H7.13349C6.41758 23.1 5.8604 22.5188 5.93816 21.8535L6.79598 14.4825C6.86252 13.9118 7.37721 13.479 7.99131 13.479H16.0596Z" fill="#CAEFF2"/>
        <path d="M20.9655 0.602744C23.0287 0.692519 22.9192 3.60012 20.8538 3.60012H12.5066C7.72468 3.60012 3.84822 7.22659 3.84822 11.7001V35.4001H3.20686C1.79001 35.4001 0.641418 34.3256 0.641418 33.0001V3.00012C0.641418 1.67464 1.79001 0.600119 3.20686 0.600119C3.32295 0.600119 20.8714 0.598619 20.9655 0.602744Z" fill="#F4FEFF"/>
        <path d="M23.4097 30.1501V33.0001C23.4097 34.3254 22.2608 35.4001 20.8442 35.4001H3.20685C1.79025 35.4001 0.641418 34.3254 0.641418 33.0001V30.1501H23.4097Z" fill="#CAEFF2"/>
        <path d="M3.8482 30.1501V33.009C3.8482 34.9636 0.641418 35.0635 0.641418 33.0001V30.1501H3.8482Z" fill="#E1F4F5"/>
        <path d="M16.0598 15.729C12.175 15.729 8.99954 18.4649 8.58955 21.9895C8.51604 22.6214 7.94563 23.1 7.26618 23.1H7.1335C6.41758 23.1 5.8604 22.5188 5.93816 21.8535L6.79599 14.4825C6.86253 13.9118 7.37722 13.479 7.99132 13.479H16.0597C16.6733 13.479 17.1885 13.9113 17.2549 14.4821C17.3326 15.149 16.7744 15.729 16.0598 15.729Z" fill="#E1F4F5"/>
        <path d="M20.8441 0H3.20679C1.43857 0 0 1.3458 0 3V33C0 34.6542 1.43857 36 3.20679 36H20.8441C22.6124 36 24.0509 34.6542 24.0509 33V3C24.0509 1.3458 22.6124 0 20.8441 0ZM20.8441 34.8H3.20679C2.1459 34.8 1.28272 33.9925 1.28272 33V3C1.28272 2.00745 2.1459 1.2 3.20679 1.2H20.8441C21.905 1.2 22.7682 2.00745 22.7682 3V29.55H4.40934C4.05515 29.55 3.76798 29.8187 3.76798 30.15C3.76798 30.4814 4.05515 30.75 4.40934 30.75H22.7682V33C22.7682 33.9925 21.905 34.8 20.8441 34.8ZM13.4685 32.625C13.4685 32.9564 13.1814 33.225 12.8272 33.225H11.2238C10.8696 33.225 10.5824 32.9564 10.5824 32.625C10.5824 32.2937 10.8696 32.025 11.2238 32.025H12.8272C13.1814 32.025 13.4685 32.2937 13.4685 32.625ZM7.13351 23.7H16.9174C18.0143 23.7 18.8692 22.8079 18.7505 21.7883L17.8928 14.4176C17.7907 13.5407 17.0026 12.8794 16.0597 12.8794H15.466V11.7686C15.4659 9.99383 13.9225 8.55 12.0255 8.55C10.1284 8.55 8.58506 9.99383 8.58506 11.7686V12.8793H7.99132C7.04837 12.8793 6.26038 13.5406 6.15824 14.4176L5.30051 21.7883C5.18177 22.8084 6.03727 23.7 7.13351 23.7ZM6.57561 21.9182L7.43334 14.5475C7.46445 14.2806 7.70424 14.0793 7.99124 14.0793H8.58498V15.0155C8.58498 15.3469 8.87215 15.6155 9.22634 15.6155C9.58053 15.6155 9.8677 15.3469 9.8677 15.0155V11.7686C9.8677 10.6556 10.8356 9.75 12.0254 9.75C13.2152 9.75 14.1831 10.6555 14.1831 11.7686V12.8794H11.4089C11.0547 12.8794 10.7675 13.148 10.7675 13.4794C10.7675 13.8107 11.0547 14.0794 11.4089 14.0794H14.1831V15.0155C14.1831 15.3469 14.4702 15.6155 14.8244 15.6155C15.1786 15.6155 15.4658 15.3469 15.4658 15.0155V14.0794H16.0595C16.3465 14.0794 16.5863 14.2807 16.6174 14.5475L17.4752 21.9182C17.5112 22.2284 17.2529 22.5 16.9173 22.5H7.13351C6.79936 22.5 6.53945 22.2296 6.57561 21.9182Z" fill="#52C29D"/>
    </symbol>

    <symbol id="instagram" viewBox="0 0 21 20"><path d="M10.0078 4.87388C7.16852 4.87388 4.87834 7.16406 4.87834 10.0033C4.87834 12.8426 7.16852 15.1328 10.0078 15.1328C12.8471 15.1328 15.1373 12.8426 15.1373 10.0033C15.1373 7.16406 12.8471 4.87388 10.0078 4.87388ZM10.0078 13.3382C8.17298 13.3382 6.67298 11.8426 6.67298 10.0033C6.67298 8.16406 8.16851 6.66853 10.0078 6.66853C11.8471 6.66853 13.3426 8.16406 13.3426 10.0033C13.3426 11.8426 11.8426 13.3382 10.0078 13.3382ZM16.5435 4.66406C16.5435 5.32924 16.0078 5.86049 15.3471 5.86049C14.6819 5.86049 14.1506 5.32478 14.1506 4.66406C14.1506 4.00335 14.6864 3.46763 15.3471 3.46763C16.0078 3.46763 16.5435 4.00335 16.5435 4.66406ZM19.9408 5.87835C19.8649 4.27567 19.4989 2.85603 18.3247 1.68638C17.1551 0.516741 15.7355 0.15067 14.1328 0.0703125C12.481 -0.0234375 7.53012 -0.0234375 5.87834 0.0703125C4.28013 0.146205 2.86049 0.512277 1.68638 1.68192C0.512276 2.85156 0.150669 4.27121 0.0703124 5.87388C-0.0234375 7.52567 -0.0234375 12.4766 0.0703124 14.1283C0.146205 15.731 0.512276 17.1507 1.68638 18.3203C2.86049 19.49 4.27566 19.856 5.87834 19.9364C7.53012 20.0301 12.481 20.0301 14.1328 19.9364C15.7355 19.8605 17.1551 19.4944 18.3247 18.3203C19.4944 17.1507 19.8605 15.731 19.9408 14.1283C20.0346 12.4766 20.0346 7.53013 19.9408 5.87835ZM17.8069 15.9007C17.4587 16.7757 16.7846 17.4498 15.9051 17.8025C14.5881 18.3248 11.4632 18.2042 10.0078 18.2042C8.55244 18.2042 5.42298 18.3203 4.11048 17.8025C3.23549 17.4542 2.56138 16.7801 2.2087 15.9007C1.68638 14.5837 1.80692 11.4587 1.80692 10.0033C1.80692 8.54799 1.69085 5.41853 2.2087 4.10603C2.55692 3.23103 3.23102 2.55692 4.11048 2.20424C5.42745 1.68192 8.55244 1.80246 10.0078 1.80246C11.4632 1.80246 14.5926 1.68638 15.9051 2.20424C16.7801 2.55246 17.4542 3.22656 17.8069 4.10603C18.3292 5.42299 18.2087 8.54799 18.2087 10.0033C18.2087 11.4587 18.3292 14.5882 17.8069 15.9007Z"/></symbol>
    <symbol id="facebook" viewBox="0 0 10 19"><path d="M9.34469 10.5025L9.86325 7.12348H6.62096V4.93071C6.62096 4.00627 7.07388 3.10517 8.526 3.10517H10V0.228284C10 0.228284 8.66239 0 7.38349 0C4.71337 0 2.96806 1.61841 2.96806 4.54817V7.12348H0V10.5025H2.96806V18.6711H6.62096V10.5025H9.34469Z"/></symbol>
    <symbol id="github" viewBox="0 0 20 20"><path d="M9.87097 0C4.27823 0 0 4.24597 0 9.83871C0 14.3105 2.81452 18.1371 6.83468 19.4839C7.35081 19.5766 7.53226 19.2581 7.53226 18.996C7.53226 18.746 7.52016 17.3669 7.52016 16.5202C7.52016 16.5202 4.69758 17.125 4.10484 15.3185C4.10484 15.3185 3.64516 14.1452 2.98387 13.8427C2.98387 13.8427 2.06048 13.2097 3.04839 13.2218C3.04839 13.2218 4.05242 13.3024 4.60484 14.2621C5.4879 15.8185 6.96774 15.371 7.54435 15.1048C7.6371 14.4597 7.89919 14.0121 8.18952 13.746C5.93548 13.496 3.66129 13.1694 3.66129 9.29032C3.66129 8.18145 3.96774 7.625 4.6129 6.91532C4.50806 6.65323 4.16532 5.57258 4.71774 4.17742C5.56048 3.91532 7.5 5.26613 7.5 5.26613C8.30645 5.04032 9.17339 4.92339 10.0323 4.92339C10.8911 4.92339 11.7581 5.04032 12.5645 5.26613C12.5645 5.26613 14.504 3.91129 15.3468 4.17742C15.8992 5.57661 15.5565 6.65323 15.4516 6.91532C16.0968 7.62903 16.4919 8.18548 16.4919 9.29032C16.4919 13.1815 14.1169 13.4919 11.8629 13.746C12.2339 14.0645 12.5484 14.6694 12.5484 15.6169C12.5484 16.9758 12.5363 18.6573 12.5363 18.9879C12.5363 19.25 12.7218 19.5685 13.2339 19.4758C17.2661 18.1371 20 14.3105 20 9.83871C20 4.24597 15.4637 0 9.87097 0Z"/></symbol>
    <symbol id="dribble" viewBox="0 0 20 20"><path d="M9.6875 0C4.34578 0 0 4.34578 0 9.6875C0 15.0292 4.34578 19.375 9.6875 19.375C15.0292 19.375 19.375 15.0292 19.375 9.6875C19.375 4.34578 15.0292 0 9.6875 0ZM16.0926 4.46742C17.245 5.87547 17.9429 7.66887 17.9611 9.62191C17.6883 9.56422 14.9526 9.00934 12.1993 9.35559C11.9746 8.80711 11.7626 8.32461 11.4721 7.73004C14.5315 6.48094 15.9181 4.7034 16.0926 4.46742V4.46742ZM15.1727 3.51055C15.0239 3.72254 13.7783 5.39672 10.8359 6.49957C9.48 4.00832 7.97715 1.96176 7.74844 1.65551C10.3725 1.02297 13.1377 1.70512 15.1727 3.51055V3.51055ZM6.16957 2.21172C6.38773 2.5109 7.86637 4.56 9.23742 6.99723C5.36684 8.02508 1.95773 8.01027 1.58766 8.00539C2.12422 5.4377 3.85461 3.30363 6.16957 2.21172ZM1.41289 9.70012C1.41289 9.61551 1.41457 9.53129 1.41711 9.44727C1.77914 9.45469 5.78898 9.50637 9.92125 8.26969C10.1581 8.73328 10.3844 9.20387 10.5921 9.67395C7.59996 10.5167 4.88141 12.9367 3.54012 15.2328C2.21852 13.7658 1.41289 11.8254 1.41289 9.70012ZM4.60848 16.228C5.47281 14.4611 7.81855 12.1802 11.1545 11.0422C12.3162 14.0611 12.7967 16.5911 12.9197 17.3171C10.2591 18.4504 7.05977 18.1395 4.60848 16.228V16.228ZM14.3108 16.5596C14.226 16.0562 13.7856 13.6339 12.7033 10.6598C15.2963 10.2448 17.5744 10.9242 17.8575 11.0136C17.4887 13.3159 16.1671 15.3043 14.3108 16.5596Z"/></symbol>
    <symbol id="twitter" viewBox="0 0 20 17"><path d="M17.9441 4.0482C17.9568 4.22586 17.9568 4.40355 17.9568 4.58121C17.9568 9.99996 13.8325 16.2436 6.29441 16.2436C3.97207 16.2436 1.81473 15.571 0 14.4036C0.329961 14.4416 0.647187 14.4543 0.989844 14.4543C2.90605 14.4543 4.67004 13.8071 6.07867 12.703C4.27664 12.665 2.76648 11.4848 2.24617 9.86039C2.5 9.89844 2.75379 9.92383 3.02031 9.92383C3.38832 9.92383 3.75637 9.87305 4.09898 9.78426C2.22082 9.40351 0.812148 7.75379 0.812148 5.76141V5.71066C1.35781 6.01523 1.99238 6.20559 2.66492 6.23094C1.56086 5.49488 0.837539 4.23855 0.837539 2.81723C0.837539 2.05582 1.04055 1.35785 1.3959 0.748711C3.41367 3.23602 6.44668 4.86035 9.84766 5.03805C9.78422 4.73348 9.74613 4.41625 9.74613 4.09898C9.74613 1.84008 11.5736 0 13.8451 0C15.0253 0 16.0913 0.494922 16.84 1.29441C17.7664 1.11676 18.6547 0.774102 19.4416 0.30457C19.137 1.25637 18.4898 2.05586 17.6395 2.56344C18.4644 2.47465 19.2639 2.24617 19.9999 1.92895C19.4416 2.74109 18.7436 3.46441 17.9441 4.0482Z"/></symbol>
</svg>